<?xml version="1.0" encoding="UTF-8"?>
<svg id="Layer_1" data-name="Layer 1" xmlns="http://www.w3.org/2000/svg" version="1.1" viewBox="0 0 150 150">
  <defs>
    <style>
      .cls-1 {
        fill: #ee2832;
      }

      .cls-1, .cls-2, .cls-3, .cls-4, .cls-5, .cls-6, .cls-7 {
        stroke-width: 0px;
      }

      .cls-2 {
        fill: #25306c;
      }

      .cls-3 {
        fill: #fffeff;
      }

      .cls-4 {
        fill: #fafafc;
      }

      .cls-5 {
        fill: #1fa7df;
      }

      .cls-6 {
        fill: #fffbfa;
      }

      .cls-7 {
        fill: #ee2532;
      }
    </style>
  </defs>
  <g>
    <g>
      <rect class="cls-5" x="104.07" y="57.86" width="17.05" height="66.34"/>
      <rect class="cls-5" x="104.07" y="26.6" width="17.05" height="17.09" rx="4.7" ry="4.7"/>
      <path class="cls-5" d="M43.71,106.24h26v17.97h21.95v-34.45h-27.77l27.77-29.32V26.6l-58.99,60.81s-18.1,18.83,11.04,18.83Z"/>
    </g>
    <path class="cls-5" d="M115.97,142.89H34.37c-14.94,0-27.09-12.15-27.09-27.09V34.2c0-14.94,12.15-27.09,27.09-27.09h81.59c14.94,0,27.09,12.15,27.09,27.09v81.59c0,14.94-12.15,27.09-27.09,27.09ZM34.83,10.04c-13.58,0-24.62,11.04-24.62,24.62v80.69c0,13.58,11.04,24.62,24.62,24.62h80.69c13.58,0,24.62-11.04,24.62-24.62V34.66c0-13.58-11.04-24.62-24.62-24.62H34.83Z"/>
  </g>
</svg>